HIERARCHY
ROOT hip
{
	OFFSET 0.000000 0.000000 0.000000 
	CHANNELS 6 Xposition Yposition Zposition Xrotation Zrotation Yrotation
	JOINT abdomen
	{
		OFFSET 0.000000 3.402643 0.000000 
		CHANNELS 3 Xrotation Zrotation Yrotation
		JOINT chest
		{
			OFFSET 0.000000 8.438565 -0.680529 
			CHANNELS 3 Xrotation Zrotation Yrotation
			JOINT neck
			{
				OFFSET 0.000000 10.207942 -0.272212 
				CHANNELS 3 Xrotation Zrotation Yrotation
				JOINT head
				{
					OFFSET 0.000000 3.130431 0.000000 
					CHANNELS 3 Xrotation Zrotation Yrotation
					End Site
					{
						OFFSET 0.000000 3.130435 0.000000 
					}
				}
			}
			JOINT lCollar
			{
				OFFSET 3.470700 6.669187 -0.816635 
				CHANNELS 3 Yrotation Zrotation Xrotation
				JOINT lShldr
				{
					OFFSET 3.198488 0.000000 0.000000 
					CHANNELS 3 Zrotation Yrotation Xrotation
					JOINT lForeArm
					{
						OFFSET 10.139888 0.000000 0.000000 
						CHANNELS 3 Yrotation Zrotation Xrotation
						JOINT lHand
						{
							OFFSET 8.370511 0.000000 0.000000 
							CHANNELS 3 Zrotation Yrotation Xrotation
							End Site
							{
								OFFSET 4.083176 0.000000 0.000000 
							}
						}
					}
				}
			}
			JOINT rCollar
			{
				OFFSET -3.470700 6.669187 -0.816635 
				CHANNELS 3 Yrotation Zrotation Xrotation
				JOINT rShldr
				{
					OFFSET -3.198488 0.000000 0.000000 
					CHANNELS 3 Zrotation Yrotation Xrotation
					JOINT rForeArm
					{
						OFFSET -10.139888 0.000000 0.000000 
						CHANNELS 3 Yrotation Zrotation Xrotation
						JOINT rHand
						{
							OFFSET -8.370511 0.000000 0.000000 
							CHANNELS 3 Zrotation Yrotation Xrotation
							End Site
							{
								OFFSET -4.083176 0.000000 0.000000 
							}
						}
					}
				}
			}
		}
	}
	JOINT lThigh
	{
		OFFSET 5.308129 -1.633274 1.361059 
		CHANNELS 3 Xrotation Zrotation Yrotation
		JOINT lShin
		{
			OFFSET -2.041588 -20.007561 0.000000 
			CHANNELS 3 Xrotation Zrotation Yrotation
			JOINT lFoot
			{
				OFFSET 0.000000 -19.190928 -1.224953 
				CHANNELS 3 Xrotation Yrotation Zrotation
				End Site
				{
					OFFSET 0.000000 -2.449906 4.627600 
				}
			}
		}
	}
	JOINT rThigh
	{
		OFFSET -5.308129 -1.633274 1.361059 
		CHANNELS 3 Xrotation Zrotation Yrotation
		JOINT rShin
		{
			OFFSET 2.041588 -20.007561 0.000000 
			CHANNELS 3 Xrotation Zrotation Yrotation
			JOINT rFoot
			{
				OFFSET 0.000000 -19.190928 -1.224953 
				CHANNELS 3 Xrotation Yrotation Zrotation
				End Site
				{
					OFFSET 0.000000 -2.449906 4.627600 
				}
			}
		}
	}
}
MOTION
Frames: 6
Frame Time: 0.016667
1.115187 49.160679 56.841515 -11.358154 3.686752 14.552309 31.146816 -0.681429 4.560804 -18.251905 3.055882 4.753386 -1.130907 -6.841998 -7.112387 2.938812 0.387480 -7.275553 -2.852360 -4.677248 -0.009721 -76.513367 12.443437 2.910192 -45.065056 4.369213 59.052845 -14.903802 16.060562 -4.220424 13.671889 0.085582 -0.009504 69.767342 11.149249 -22.968777 65.882751 -1.976422 22.527998 -13.020443 -4.036714 0.922414 -2.000910 5.037376 -7.513983 25.674406 -1.329115 -2.289143 1.762784 -3.910604 -12.102749 2.849574 -8.910332 -3.799190 27.380064 1.205075 2.339859 -3.855455 -10.775458 11.202742 
1.109892 49.158859 56.832455 -11.333012 3.695386 14.601659 31.116272 -0.691126 4.599863 -18.202923 3.026470 4.802140 -1.233755 -6.821745 -7.170556 3.003036 0.416486 -7.334144 -2.940248 -4.657702 -0.009721 -76.493271 12.444669 2.904892 -45.184715 4.364720 58.915520 -14.832138 16.189024 -4.230004 13.652368 0.144179 -0.009514 69.656670 11.056472 -22.765715 64.813965 -1.985274 22.572165 -13.080767 -3.493422 0.800867 -2.048453 5.034852 -7.542178 25.684177 -1.329127 -2.289650 1.785339 -3.976238 -12.083353 2.811139 -8.902678 -3.758582 27.409901 1.209609 2.322933 -3.864282 -10.861316 11.208687 
1.104613 49.157066 56.823406 -11.309697 3.694400 14.660124 31.085590 -0.700812 4.648685 -18.153996 2.997061 4.850894 -1.326807 -6.811326 -7.220192 3.077041 0.445495 -7.382968 -3.028923 -4.627875 -0.019440 -76.473183 12.445908 2.899593 -45.304440 4.360735 58.778893 -14.760457 16.317541 -4.241978 13.623081 0.202778 -0.009525 69.555161 10.968234 -22.558624 63.756668 -1.992170 22.610991 -13.132325 -2.941016 0.675422 -2.096258 5.042830 -7.579763 25.684177 -1.329132 -2.289651 1.806317 -4.029274 -12.069947 2.760315 -8.878079 -3.716726 27.449341 1.209462 2.315175 -3.859956 -10.921125 11.183058 
1.106351 49.159176 56.816639 -11.305324 3.703353 14.689985 31.064905 -0.710516 4.677979 -18.090857 3.026077 4.889907 -1.479485 -6.820719 -7.239584 3.203690 0.445455 -7.422029 -3.076968 -4.667445 -0.009719 -76.471764 12.473225 2.825768 -45.445763 4.360507 58.710224 -14.660429 16.343636 -4.219276 13.642614 0.212540 -0.009526 69.454369 10.886608 -22.363749 62.883106 -1.985805 22.511946 -13.168022 -2.636273 0.606340 -2.107655 5.046213 -7.539812 25.645649 -1.309495 -2.293256 1.873233 -4.109346 -12.072665 2.771870 -8.901999 -3.787862 27.458748 1.209454 2.325382 -3.808944 -10.914811 11.209663 
1.108093 49.161278 56.809856 -11.300941 3.712302 14.719216 31.044336 -0.720229 4.697631 -18.018433 3.055134 4.919164 -1.630914 -6.839798 -7.258976 3.329149 0.455109 -7.451402 -3.116037 -4.706500 -0.009718 -76.480362 12.501009 2.749827 -45.587021 4.360592 58.642155 -14.560379 16.369703 -4.193747 13.652380 0.222304 -0.009528 69.352921 10.814800 -22.173861 62.008827 -1.969341 22.414585 -13.204170 -2.341130 0.539053 -2.114603 5.050376 -7.490468 25.626276 -1.290047 -2.307711 1.891634 -4.168420 -12.102637 2.761791 -8.922637 -3.839076 27.477930 1.209458 2.336091 -3.780219 -10.896481 11.208510 
1.110889 49.161160 56.802402 -11.299675 3.711969 14.738705 31.054293 -0.710446 4.746454 -18.011652 2.996579 4.958169 -1.713012 -6.781233 -7.288059 3.338682 0.455078 -7.480696 -3.164857 -4.657665 -0.009719 -76.497055 12.564986 2.690171 -45.699379 4.351859 58.577576 -14.490760 16.393602 -4.179163 13.642621 0.251603 -0.009533 69.316200 10.727618 -22.018824 61.562325 -1.974411 22.298950 -13.153269 -2.113363 0.483400 -2.135431 5.043315 -7.489990 25.626110 -1.285816 -2.316553 1.902753 -4.175894 -12.104604 2.752870 -8.925049 -3.839099 27.468161 1.209448 2.335592 -3.739577 -10.902869 11.220500 
